<mxfile host="app.diagrams.net" modified="2024-02-26T04:37:44.306Z" agent="Mozilla/5.0 (Windows NT 10.0; Win64; x64) AppleWebKit/537.36 (KHTML, like Gecko) Chrome/122.0.0.0 Safari/537.36" etag="SIR1i3KYLgqXVx41X3J6" version="23.1.6" type="device">
  <diagram name="Page-1" id="PyCe2yR-fGFqo1A-PFSp">
    <mxGraphModel dx="1217" dy="607" grid="1" gridSize="10" guides="1" tooltips="1" connect="1" arrows="1" fold="1" page="1" pageScale="1" pageWidth="1169" pageHeight="827" math="0" shadow="0">
      <root>
        <mxCell id="0" />
        <mxCell id="1" parent="0" />
        <mxCell id="BnhcrSEK56_b6jAqbSCg-4" value="Application Load Balancer" style="outlineConnect=0;dashed=0;verticalLabelPosition=bottom;verticalAlign=top;align=center;html=1;shape=mxgraph.aws3.application_load_balancer;fillColor=#F58534;gradientColor=none;" parent="1" vertex="1">
          <mxGeometry x="555" y="239" width="69" height="72" as="geometry" />
        </mxCell>
        <mxCell id="BnhcrSEK56_b6jAqbSCg-5" value="Network Load Balancer&amp;nbsp;" style="outlineConnect=0;dashed=0;verticalLabelPosition=bottom;verticalAlign=top;align=center;html=1;shape=mxgraph.aws3.application_load_balancer;fillColor=#F58534;gradientColor=none;" parent="1" vertex="1">
          <mxGeometry x="276" y="239" width="63" height="72" as="geometry" />
        </mxCell>
        <mxCell id="BnhcrSEK56_b6jAqbSCg-84" value="" style="edgeStyle=orthogonalEdgeStyle;rounded=0;orthogonalLoop=1;jettySize=auto;html=1;" parent="1" source="BnhcrSEK56_b6jAqbSCg-8" target="BnhcrSEK56_b6jAqbSCg-80" edge="1">
          <mxGeometry relative="1" as="geometry" />
        </mxCell>
        <mxCell id="BnhcrSEK56_b6jAqbSCg-8" value="Target Type : ALB" style="whiteSpace=wrap;html=1;verticalAlign=top;fillColor=#F58534;dashed=0;gradientColor=none;" parent="1" vertex="1">
          <mxGeometry x="339" y="250.5" width="94.5" height="49" as="geometry" />
        </mxCell>
        <mxCell id="BnhcrSEK56_b6jAqbSCg-85" style="edgeStyle=orthogonalEdgeStyle;rounded=0;orthogonalLoop=1;jettySize=auto;html=1;entryX=0;entryY=0.5;entryDx=0;entryDy=0;" parent="1" source="BnhcrSEK56_b6jAqbSCg-12" target="BnhcrSEK56_b6jAqbSCg-19" edge="1">
          <mxGeometry relative="1" as="geometry">
            <Array as="points">
              <mxPoint x="750" y="263" />
              <mxPoint x="750" y="234" />
            </Array>
          </mxGeometry>
        </mxCell>
        <mxCell id="BnhcrSEK56_b6jAqbSCg-101" value="" style="edgeStyle=orthogonalEdgeStyle;rounded=0;orthogonalLoop=1;jettySize=auto;html=1;" parent="1" source="BnhcrSEK56_b6jAqbSCg-12" target="BnhcrSEK56_b6jAqbSCg-87" edge="1">
          <mxGeometry relative="1" as="geometry">
            <Array as="points">
              <mxPoint x="750" y="275" />
              <mxPoint x="750" y="316" />
            </Array>
          </mxGeometry>
        </mxCell>
        <mxCell id="BnhcrSEK56_b6jAqbSCg-12" value="Rules&lt;br&gt;PATH patterns" style="whiteSpace=wrap;html=1;verticalAlign=top;fillColor=#F58534;dashed=0;gradientColor=none;" parent="1" vertex="1">
          <mxGeometry x="620" y="255" width="90" height="40" as="geometry" />
        </mxCell>
        <mxCell id="BnhcrSEK56_b6jAqbSCg-91" value="" style="edgeStyle=orthogonalEdgeStyle;rounded=0;orthogonalLoop=1;jettySize=auto;html=1;" parent="1" source="BnhcrSEK56_b6jAqbSCg-19" target="BnhcrSEK56_b6jAqbSCg-26" edge="1">
          <mxGeometry relative="1" as="geometry" />
        </mxCell>
        <mxCell id="BnhcrSEK56_b6jAqbSCg-19" value="/ABC" style="whiteSpace=wrap;html=1;verticalAlign=top;fillColor=#F58534;dashed=0;gradientColor=none;" parent="1" vertex="1">
          <mxGeometry x="778" y="220" width="52" height="27" as="geometry" />
        </mxCell>
        <mxCell id="BnhcrSEK56_b6jAqbSCg-98" value="" style="edgeStyle=orthogonalEdgeStyle;rounded=0;orthogonalLoop=1;jettySize=auto;html=1;" parent="1" source="BnhcrSEK56_b6jAqbSCg-26" target="BnhcrSEK56_b6jAqbSCg-31" edge="1">
          <mxGeometry relative="1" as="geometry" />
        </mxCell>
        <mxCell id="BnhcrSEK56_b6jAqbSCg-26" value="Target Group &lt;br&gt;Target Type :EC2" style="whiteSpace=wrap;html=1;verticalAlign=top;fillColor=#F58534;dashed=0;gradientColor=none;" parent="1" vertex="1">
          <mxGeometry x="861" y="215" width="120" height="37" as="geometry" />
        </mxCell>
        <mxCell id="BnhcrSEK56_b6jAqbSCg-31" value="EC2&lt;br&gt;port:8443" style="whiteSpace=wrap;html=1;verticalAlign=top;fillColor=#F58534;dashed=0;gradientColor=none;" parent="1" vertex="1">
          <mxGeometry x="1020" y="212.5" width="80" height="42.5" as="geometry" />
        </mxCell>
        <mxCell id="BnhcrSEK56_b6jAqbSCg-75" value="Listeners&amp;nbsp;&lt;br&gt;TCP:443" style="whiteSpace=wrap;html=1;verticalAlign=top;fillColor=#F58534;dashed=0;gradientColor=none;" parent="1" vertex="1">
          <mxGeometry x="196" y="252.5" width="80" height="45" as="geometry" />
        </mxCell>
        <mxCell id="BnhcrSEK56_b6jAqbSCg-80" value="Listeners&lt;br&gt;Https:443&amp;nbsp;" style="whiteSpace=wrap;html=1;verticalAlign=top;fillColor=#F58534;dashed=0;gradientColor=none;" parent="1" vertex="1">
          <mxGeometry x="490" y="255" width="70" height="40" as="geometry" />
        </mxCell>
        <mxCell id="BnhcrSEK56_b6jAqbSCg-99" value="" style="edgeStyle=orthogonalEdgeStyle;rounded=0;orthogonalLoop=1;jettySize=auto;html=1;" parent="1" source="BnhcrSEK56_b6jAqbSCg-87" target="BnhcrSEK56_b6jAqbSCg-93" edge="1">
          <mxGeometry relative="1" as="geometry" />
        </mxCell>
        <mxCell id="BnhcrSEK56_b6jAqbSCg-87" value="/XYZ" style="whiteSpace=wrap;html=1;verticalAlign=top;fillColor=#F58534;dashed=0;gradientColor=none;" parent="1" vertex="1">
          <mxGeometry x="778" y="302.25" width="52" height="27" as="geometry" />
        </mxCell>
        <mxCell id="BnhcrSEK56_b6jAqbSCg-95" value="" style="edgeStyle=orthogonalEdgeStyle;rounded=0;orthogonalLoop=1;jettySize=auto;html=1;" parent="1" source="BnhcrSEK56_b6jAqbSCg-89" target="BnhcrSEK56_b6jAqbSCg-93" edge="1">
          <mxGeometry relative="1" as="geometry" />
        </mxCell>
        <mxCell id="BnhcrSEK56_b6jAqbSCg-89" value="" style="outlineConnect=0;dashed=0;verticalLabelPosition=bottom;verticalAlign=top;align=center;html=1;shape=mxgraph.aws3.auto_scaling;fillColor=#F58534;gradientColor=none;" parent="1" vertex="1">
          <mxGeometry x="881.25" y="370" width="79.5" height="76.5" as="geometry" />
        </mxCell>
        <mxCell id="BnhcrSEK56_b6jAqbSCg-96" value="" style="edgeStyle=orthogonalEdgeStyle;rounded=0;orthogonalLoop=1;jettySize=auto;html=1;" parent="1" source="BnhcrSEK56_b6jAqbSCg-92" target="BnhcrSEK56_b6jAqbSCg-26" edge="1">
          <mxGeometry relative="1" as="geometry" />
        </mxCell>
        <mxCell id="BnhcrSEK56_b6jAqbSCg-92" value="" style="outlineConnect=0;dashed=0;verticalLabelPosition=bottom;verticalAlign=top;align=center;html=1;shape=mxgraph.aws3.auto_scaling;fillColor=#F58534;gradientColor=none;" parent="1" vertex="1">
          <mxGeometry x="881.25" y="90" width="79.5" height="76.5" as="geometry" />
        </mxCell>
        <mxCell id="BnhcrSEK56_b6jAqbSCg-102" value="" style="edgeStyle=orthogonalEdgeStyle;rounded=0;orthogonalLoop=1;jettySize=auto;html=1;" parent="1" source="BnhcrSEK56_b6jAqbSCg-93" target="BnhcrSEK56_b6jAqbSCg-94" edge="1">
          <mxGeometry relative="1" as="geometry" />
        </mxCell>
        <mxCell id="BnhcrSEK56_b6jAqbSCg-93" value="Target Group &lt;br&gt;Target Type :EC2" style="whiteSpace=wrap;html=1;verticalAlign=top;fillColor=#F58534;dashed=0;gradientColor=none;" parent="1" vertex="1">
          <mxGeometry x="861" y="297.25" width="120" height="37" as="geometry" />
        </mxCell>
        <mxCell id="BnhcrSEK56_b6jAqbSCg-94" value="EC2&lt;br&gt;port:8443" style="whiteSpace=wrap;html=1;verticalAlign=top;fillColor=#F58534;dashed=0;gradientColor=none;" parent="1" vertex="1">
          <mxGeometry x="1020" y="295" width="80" height="42.5" as="geometry" />
        </mxCell>
        <mxCell id="BnhcrSEK56_b6jAqbSCg-104" value="" style="edgeStyle=orthogonalEdgeStyle;rounded=0;orthogonalLoop=1;jettySize=auto;html=1;" parent="1" source="BnhcrSEK56_b6jAqbSCg-103" target="BnhcrSEK56_b6jAqbSCg-75" edge="1">
          <mxGeometry relative="1" as="geometry" />
        </mxCell>
        <mxCell id="BnhcrSEK56_b6jAqbSCg-103" value="" style="html=1;verticalLabelPosition=bottom;align=center;labelBackgroundColor=#ffffff;verticalAlign=top;strokeWidth=2;strokeColor=#0080F0;shadow=0;dashed=0;shape=mxgraph.ios7.icons.user;" parent="1" vertex="1">
          <mxGeometry x="60" y="260" width="30" height="30" as="geometry" />
        </mxCell>
        <mxCell id="BnhcrSEK56_b6jAqbSCg-105" value="&lt;b&gt;&lt;font style=&quot;font-size: 18px;&quot;&gt;Illustration of Network Traffic flow and&amp;nbsp; high level&amp;nbsp;&lt;/font&gt;&lt;/b&gt;&lt;b style=&quot;border-color: var(--border-color);&quot;&gt;&lt;font style=&quot;border-color: var(--border-color); font-size: 18px;&quot;&gt;architecture&amp;nbsp;&lt;/font&gt;&lt;/b&gt;&lt;b&gt;&lt;font style=&quot;font-size: 18px;&quot;&gt;diagram&lt;/font&gt;&lt;/b&gt;" style="text;html=1;align=center;verticalAlign=middle;whiteSpace=wrap;rounded=0;" parent="1" vertex="1">
          <mxGeometry x="261.25" y="420" width="620" height="120" as="geometry" />
        </mxCell>
      </root>
    </mxGraphModel>
  </diagram>
</mxfile>
